<svg width="887" height="997" viewBox="0 0 887 997" fill="none" xmlns="http://www.w3.org/2000/svg">
<path d="M882.465 201.182C885.093 198.671 889.242 193.783 884.096 193.285C878.951 192.781 870.553 193.16 861.276 183C852 172.842 841.953 164.82 830.424 155.035C818.896 145.26 806.984 131.966 802.344 123.685C797.697 115.414 793.689 110.267 793.056 107.891C792.434 105.506 790.421 99.6097 790.681 96.8487C790.93 94.0937 793.441 93.2187 793.939 90.2087C794.437 87.1987 794.561 84.8127 795.445 83.1827C796.315 81.5527 795.818 77.7957 795.07 75.4107C795.07 75.4107 795.196 67.1347 796.192 62.4947C797.199 57.8517 807.731 45.0657 803.341 28.6387C798.951 12.2127 787.286 1.29967 778.893 0.424671C770.486 -0.457329 738.263 0.0496707 717.95 1.80467C697.637 3.55667 679.574 10.0797 673.935 15.2227C668.289 20.3597 667.356 24.1247 667.356 24.1247C667.356 24.1247 644.391 40.4167 648.344 77.7047C652.292 114.992 657.234 125.114 661.674 132.771C666.117 140.424 673.532 148.575 674.27 152.523C675.013 156.472 676.244 171.788 666.861 177.959C657.479 184.132 636.245 188.82 624.395 185.612C612.539 182.402 608.097 188.82 606.119 190.797C604.143 192.773 597.727 195.982 587.596 193.514C577.477 191.042 567.356 188.08 570.318 194.008C573.279 199.935 578.464 203.635 584.391 206.356C590.32 209.068 604.143 209.318 614.763 206.6C625.382 203.884 639.455 199.935 639.455 199.935C639.455 199.935 635.823 204.621 635.604 208.59C635.382 212.559 635.382 214.211 631.083 217.187C626.789 220.164 621.831 219.61 620.838 228.979C619.846 238.348 613.344 253.117 610.257 261.162C607.172 269.207 600.007 283.976 597.914 286.948C597.914 286.948 590.97 286.067 586.78 287.725C582.592 289.374 582.044 291.357 578.184 296.868C574.327 302.379 569.919 308.772 566.281 309.654C562.643 310.535 554.379 310.65 550.19 313.517C546.002 316.382 535.86 322.995 545.78 330.484C545.78 330.484 530.019 341.175 519.438 350.434C519.438 350.434 499.821 346.687 493.539 354.071C488.357 347.457 479.986 351.646 477.556 353.631C477.266 353.875 476.785 354.247 476.206 354.747C475.385 354.018 474.05 353.357 473.307 353.357C472.122 353.357 471.173 351.699 471.648 349.801C472.123 347.913 468.812 346.015 467.622 345.067C466.439 344.123 463.598 344.598 462.654 346.016C461.704 347.434 459.103 345.542 458.394 344.832C457.679 344.123 441.584 332.522 436.85 330.394C432.116 328.267 396.605 308.139 394.004 306.482C391.397 304.824 384.296 301.747 382.877 300.803C381.957 300.186 380.572 300.012 379.497 300.195L184.095 192.096C184.543 189.561 179.925 186.537 177.5 184.721C175.066 182.895 165.107 175.88 161.859 175.478C160.125 175.256 158.572 176.694 157.464 178.103L42.4895 116.564C43.3615 114.464 43.6155 111.742 41.6985 110.367C39.5665 108.848 21.1835 97.9787 18.0305 96.3497C14.8835 94.7247 6.15151 92.7937 3.30551 99.1967C3.30551 99.1967 -2.28249 105.593 1.07251 109.557C4.42151 113.515 10.6175 117.885 15.1895 120.53C19.7615 123.167 24.5345 126.013 24.5345 126.013C27.4005 127.662 30.1935 129.194 32.9725 127.949L153.306 197.061C153.248 197.27 153.185 197.548 153.118 197.722C151.806 201.68 159.218 203.309 165.616 206.252C171.228 208.839 170.906 209.075 172.315 208.273C190.985 219.141 312.544 289.862 337.659 303.404C364.884 318.083 402.997 345.306 414.596 350.75C426.198 356.193 459.578 372.765 459.578 372.765C459.578 372.765 458.893 373.934 461.902 376.134C461.581 377.691 461.359 379.292 461.359 380.966C461.359 395.624 467.534 396.836 467.534 396.836C467.534 396.836 468.967 406.981 478.109 413.7C487.257 420.419 488.467 421.635 492.111 421.079C492.111 421.079 501.255 429.57 510.403 427.913C519.549 426.264 524.841 414.246 523.077 406.865C523.077 406.865 523.299 406.802 523.38 406.779C532.356 412.289 544.984 419.868 555.487 426.136C554.921 430.127 556.108 434.165 559.995 435.964C565.725 438.609 569.258 434.64 569.258 434.64C569.258 434.64 564.077 446.429 567.166 452.716C570.251 458.993 575.871 465.502 583.364 469.469C590.859 473.436 599.566 479.389 611.58 476.848C611.58 476.848 601.771 507.268 596.591 535.703C596.591 535.703 584.247 545.843 592.844 553.002C592.844 553.002 592.293 559.511 590.419 563.363C588.546 567.225 589.098 575.051 602.544 571.414C602.544 571.414 588.052 617.178 574.564 715.5C561.074 813.824 552.914 914.926 552.914 919.539C552.914 924.156 564.448 927.553 567.643 928.209C570.833 928.871 573.945 930.184 575.828 933.854C576.466 935.104 577.735 936.635 579.26 938.225C576.677 939.666 572.22 942.245 570.461 943.784C567.938 945.993 562.568 948.2 559.255 949.304C555.938 950.415 551.992 953.886 551.677 956.093C551.362 958.304 549.943 959.886 548.362 961.462C546.786 963.038 544.1 965.886 545.203 968.253C546.31 970.62 547.891 970.304 548.521 972.671C549.153 975.038 551.677 974.251 552.625 975.669C553.57 977.087 557.993 982.771 564.62 981.507C571.247 980.247 572.511 976.618 575.195 975.513C577.88 974.406 584.828 978.042 589.405 974.406C593.981 970.775 598.562 965.722 604.24 964.302C609.205 963.062 615.889 960.335 623.068 955.185C623.014 960.253 622.945 967.496 622.945 971.189C622.945 977.212 621.909 984.263 632.44 986.238C642.974 988.217 664.702 988.217 669.028 987.179C673.352 986.146 682.005 985.388 682.005 985.388C682.005 985.388 689.812 994.513 692.82 996.019C695.831 997.521 711.255 993.007 716.521 990.093C721.789 987.179 726.862 980.874 728.56 980.404C730.25 979.935 737.775 980.502 742.854 980.031C747.935 979.562 754.042 977.683 756.867 976.179C759.685 974.673 759.781 972.79 759.781 972.79C759.781 972.79 763.26 974.854 766.367 971.188C766.367 971.188 766.645 972.225 767.681 972.879C768.717 973.541 774.073 973.82 776.24 972.879C778.404 971.941 777.937 969.594 780.102 968.461C782.258 967.332 784.422 966.859 786.771 966.486C789.128 966.113 792.791 963.007 794.103 960.093C795.427 957.177 796.555 955.202 796.74 951.812C796.74 951.812 802.105 951.343 804.828 947.962C807.56 944.571 807.369 942.599 811.137 939.12C812.44 937.907 813.349 936.868 814.057 935.827C818.477 934.067 823.805 932.309 829.93 930.977C845.188 927.661 838.546 908.426 838.546 899.139C838.546 889.852 833.906 808.934 833.906 744.596C833.906 680.258 834.385 571.038 834.385 571.038C836.513 554.707 834.385 535.539 827.294 514.242C820.19 492.947 818.064 481.59 818.064 481.59C818.064 481.59 822.654 481.313 823.786 481.189C824.917 481.063 824.034 479.559 823.151 477.805C822.281 476.046 816.51 466.265 815.63 462.633C814.758 458.99 811.241 447.333 803.976 442.688C803.976 442.688 807.484 442.819 813.503 442.316C819.523 441.816 828.042 438.932 831.185 437.049C834.318 435.166 834.568 434.168 834.318 431.533C834.07 428.897 837.081 419.62 838.336 412.973C839.581 406.325 845.476 382.376 845.476 364.693C845.476 347.015 846.732 340.997 845.984 336.477C845.227 331.968 841.593 326.323 841.593 326.323C841.593 326.323 847.104 317.674 849.367 313.657C851.617 309.646 855.26 300.742 856.641 300.24C858.021 299.74 861.031 292.964 863.281 288.076C865.544 283.188 867.547 277.294 868.047 275.161C868.555 273.029 868.43 273.403 866.044 268.141C863.656 262.87 857.638 249.577 854.255 241.181C850.87 232.781 847.614 224.63 844.604 221.243C844.604 221.243 856.134 218.483 862.661 214.595C869.173 210.713 879.831 203.692 882.465 201.182ZM155.86 180.533C155.86 180.533 76.6805 136.7 48.4885 121.058L156.798 179.037C156.257 179.847 155.86 180.533 155.86 180.533ZM344.76 285.651C312.468 267.758 212.151 212.146 182.364 195.566C182.667 194.972 183.226 194.319 183.687 193.19L378.06 301.286C377.95 301.847 378.004 302.668 378.185 303.567C366.98 297.708 355.356 291.521 344.76 285.651ZM622.051 376.005C623.373 390.553 624.474 398.269 624.474 398.269C624.474 398.269 615.439 402.015 613.234 405.102C613.234 405.102 608.825 405.984 608.166 405.102C607.504 404.22 604.749 401.575 601.992 402.786C599.237 403.999 596.262 400.914 594.388 401.795C592.513 402.677 588.766 400.142 581.604 403.448C577.732 405.237 571.957 408.667 566.919 412.242C559.013 407.527 550.828 402.773 544.607 399.188C544.626 399.179 544.66 399.161 544.679 399.15C548.427 396.285 556.031 392.648 559.779 392.316C563.524 391.986 572.234 387.578 574.878 377.547C574.878 377.547 579.178 381.956 580.611 383.5C582.045 385.042 585.354 384.821 587.552 383.39C589.758 381.956 597.584 377.327 600.999 374.021C604.416 370.714 608.824 364.982 612.793 361.677C616.761 358.37 623.152 349.443 624.586 345.805C624.586 345.805 620.719 361.456 622.051 376.005Z" fill="url(#paint0_linear_57_366)"/>
<defs>
<linearGradient id="paint0_linear_57_366" x1="-0.000492262" y1="498.157" x2="886.548" y2="498.157" gradientUnits="userSpaceOnUse">
<stop stop-color="#784296"/>
<stop offset="0.4848" stop-color="#E83A37"/>
<stop offset="1" stop-color="#F29438"/>
</linearGradient>
</defs>
</svg>
