<svg width="891" height="1000" viewBox="0 0 891 1000" fill="none" xmlns="http://www.w3.org/2000/svg">
<path d="M884.466 203.182C887.094 200.671 891.243 195.783 886.097 195.285C880.951 194.781 872.554 195.16 863.277 185C854 174.842 843.954 166.82 832.425 157.035C820.896 147.26 808.984 133.966 804.344 125.685C799.697 117.414 795.69 112.267 795.057 109.891C794.435 107.506 792.422 101.61 792.682 98.8487C792.931 96.0937 795.442 95.2187 795.94 92.2087C796.438 89.1987 796.561 86.8127 797.445 85.1827C798.316 83.5527 797.818 79.7957 797.071 77.4107C797.071 77.4107 797.197 69.1347 798.193 64.4947C799.2 59.8517 809.731 47.0657 805.341 30.6387C800.951 14.2127 789.287 3.29967 780.893 2.42467C772.486 1.54267 740.264 2.04967 719.951 3.80467C699.638 5.55667 681.576 12.0797 675.937 17.2227C670.291 22.3597 669.357 26.1247 669.357 26.1247C669.357 26.1247 646.392 42.4167 650.346 79.7047C654.294 116.992 659.235 127.114 663.675 134.771C668.118 142.424 675.533 150.575 676.271 154.523C677.014 158.472 678.245 173.788 668.862 179.959C659.48 186.132 638.246 190.82 626.396 187.612C614.54 184.402 610.098 190.82 608.12 192.797C606.144 194.773 599.727 197.982 589.597 195.514C579.477 193.042 569.356 190.08 572.318 196.008C575.279 201.935 580.464 205.635 586.391 208.356C592.321 211.068 606.144 211.318 616.763 208.6C627.382 205.884 641.456 201.935 641.456 201.935C641.456 201.935 637.824 206.621 637.604 210.59C637.382 214.559 637.382 216.211 633.083 219.187C628.79 222.164 623.832 221.61 622.839 230.979C621.847 240.348 615.345 255.117 612.258 263.162C609.173 271.207 602.007 285.976 599.914 288.948C599.914 288.948 592.971 288.067 588.781 289.725C584.593 291.374 584.045 293.357 580.185 298.868C576.328 304.379 571.919 310.772 568.281 311.654C564.643 312.535 556.379 312.65 552.19 315.517C548.002 318.382 537.861 324.995 547.781 332.484C547.781 332.484 532.02 343.175 521.438 352.434C521.438 352.434 501.821 348.687 495.539 356.071C490.357 349.457 481.987 353.646 479.557 355.631C479.267 355.875 478.785 356.247 478.206 356.747C477.386 356.018 476.05 355.357 475.307 355.357C474.122 355.357 473.173 353.699 473.648 351.801C474.123 349.913 470.814 348.015 469.624 347.067C468.44 346.123 465.598 346.598 464.654 348.016C463.705 349.434 461.104 347.542 460.395 346.832C459.68 346.123 443.584 334.522 438.85 332.394C434.116 330.267 398.605 310.139 396.004 308.482C393.397 306.824 386.297 303.747 384.878 302.803C383.958 302.186 382.573 302.012 381.499 302.195L186.096 194.096C186.544 191.561 181.926 188.537 179.501 186.721C177.067 184.895 167.109 177.88 163.86 177.478C162.126 177.256 160.573 178.694 159.465 180.103L44.4895 118.564C45.3615 116.464 45.6155 113.742 43.6985 112.367C41.5665 110.848 23.1835 99.9787 20.0305 98.3497C16.8835 96.7247 8.15151 94.7937 5.30551 101.197C5.30551 101.197 -0.282492 107.593 3.07251 111.557C6.42151 115.515 12.6175 119.885 17.1895 122.53C21.7615 125.167 26.5345 128.013 26.5345 128.013C29.4005 129.662 32.1935 131.194 34.9725 129.949L155.306 199.061C155.248 199.27 155.185 199.548 155.118 199.722C153.806 203.68 161.218 205.309 167.616 208.252C173.228 210.839 172.906 211.075 174.315 210.273C192.985 221.141 314.544 291.862 339.659 305.404C366.884 320.083 404.998 347.306 416.596 352.75C428.198 358.193 461.577 374.765 461.577 374.765C461.577 374.765 460.892 375.934 463.901 378.134C463.58 379.691 463.359 381.292 463.359 382.966C463.359 397.624 469.534 398.836 469.534 398.836C469.534 398.836 470.967 408.981 480.109 415.7C489.257 422.419 490.467 423.635 494.11 423.079C494.11 423.079 503.254 431.57 512.402 429.913C521.548 428.264 526.84 416.246 525.076 408.865C525.076 408.865 525.299 408.802 525.38 408.779C534.356 414.289 546.985 421.868 557.487 428.136C556.921 432.127 558.108 436.165 561.995 437.964C567.725 440.609 571.258 436.64 571.258 436.64C571.258 436.64 566.076 448.429 569.165 454.716C572.25 460.993 577.87 467.502 585.363 471.469C592.859 475.436 601.565 481.389 613.579 478.848C613.579 478.848 603.771 509.268 598.591 537.703C598.591 537.703 586.247 547.843 594.844 555.002C594.844 555.002 594.293 561.511 592.419 565.363C590.546 569.225 591.098 577.051 604.544 573.414C604.544 573.414 590.051 619.178 576.563 717.5C563.073 815.824 554.914 916.926 554.914 921.539C554.914 926.156 566.448 929.553 569.643 930.209C572.834 930.871 575.945 932.184 577.828 935.854C578.466 937.104 579.735 938.635 581.26 940.225C578.676 941.666 574.22 944.245 572.461 945.784C569.937 947.993 564.568 950.2 561.255 951.304C557.938 952.415 553.993 955.886 553.677 958.093C553.363 960.304 551.944 961.886 550.362 963.462C548.786 965.038 546.1 967.886 547.203 970.253C548.31 972.62 549.892 972.304 550.521 974.671C551.153 977.038 553.677 976.251 554.625 977.669C555.57 979.087 559.993 984.771 566.62 983.507C573.247 982.247 574.511 978.618 577.195 977.513C579.879 976.406 586.827 980.042 591.404 976.406C595.98 972.775 600.562 967.722 606.24 966.302C611.205 965.062 617.889 962.335 625.068 957.185C625.014 962.253 624.945 969.496 624.945 973.189C624.945 979.212 623.909 986.263 634.44 988.238C644.973 990.217 666.701 990.217 671.027 989.179C675.351 988.146 684.005 987.388 684.005 987.388C684.005 987.388 691.812 996.513 694.82 998.019C697.83 999.521 713.255 995.007 718.521 992.093C723.789 989.179 728.862 982.874 730.56 982.404C732.251 981.935 739.775 982.502 744.854 982.031C749.935 981.562 756.042 979.683 758.867 978.179C761.685 976.673 761.781 974.79 761.781 974.79C761.781 974.79 765.26 976.854 768.367 973.188C768.367 973.188 768.644 974.225 769.68 974.879C770.716 975.541 776.074 975.82 778.24 974.879C780.405 973.941 779.937 971.594 782.102 970.461C784.258 969.332 786.422 968.859 788.771 968.486C791.127 968.113 794.79 965.007 796.102 962.093C797.426 959.177 798.556 957.202 798.74 953.812C798.74 953.812 804.105 953.343 806.828 949.962C809.56 946.571 809.368 944.599 813.136 941.12C814.439 939.907 815.348 938.868 816.057 937.827C820.477 936.067 825.806 934.309 831.93 932.977C847.188 929.661 840.545 910.426 840.545 901.139C840.545 891.852 835.906 810.934 835.906 746.596C835.906 682.258 836.385 573.038 836.385 573.038C838.513 556.707 836.386 537.539 829.294 516.242C822.19 494.947 820.063 483.59 820.063 483.59C820.063 483.59 824.654 483.313 825.786 483.189C826.917 483.063 826.034 481.559 825.151 479.805C824.28 478.046 818.51 468.265 817.63 464.633C816.757 460.99 813.24 449.333 805.975 444.688C805.975 444.688 809.485 444.819 815.503 444.316C821.523 443.816 830.042 440.932 833.185 439.049C836.319 437.166 836.568 436.168 836.318 433.533C836.07 430.897 839.081 421.62 840.336 414.973C841.582 408.325 847.475 384.376 847.475 366.693C847.475 349.015 848.732 342.997 847.984 338.477C847.227 333.968 843.592 328.323 843.592 328.323C843.592 328.323 849.104 319.674 851.367 315.657C853.617 311.646 857.261 302.742 858.641 302.24C860.021 301.74 863.03 294.964 865.281 290.076C867.544 285.188 869.548 279.294 870.047 277.161C870.555 275.029 870.43 275.403 868.044 270.141C865.656 264.87 859.637 251.577 856.255 243.181C852.87 234.781 849.614 226.63 846.604 223.243C846.604 223.243 858.134 220.483 864.661 216.595C871.174 212.713 881.831 205.692 884.466 203.182ZM157.86 182.533C157.86 182.533 78.6805 138.7 50.4885 123.058L158.798 181.037C158.257 181.847 157.86 182.533 157.86 182.533ZM346.76 287.651C314.468 269.758 214.152 214.146 184.365 197.566C184.668 196.972 185.227 196.319 185.688 195.19L380.061 303.287C379.951 303.848 380.005 304.669 380.186 305.568C368.98 299.708 357.355 293.521 346.76 287.651ZM624.052 378.005C625.374 392.553 626.475 400.269 626.475 400.269C626.475 400.269 617.439 404.015 615.234 407.102C615.234 407.102 610.826 407.984 610.167 407.102C609.505 406.22 606.749 403.575 603.992 404.786C601.237 405.999 598.262 402.914 596.388 403.795C594.514 404.677 590.766 402.142 583.604 405.448C579.732 407.237 573.957 410.667 568.919 414.242C561.013 409.527 552.83 404.773 546.609 401.188C546.628 401.179 546.661 401.161 546.68 401.15C550.428 398.285 558.032 394.648 561.779 394.316C565.525 393.986 574.234 389.578 576.878 379.547C576.878 379.547 581.179 383.956 582.612 385.5C584.046 387.042 587.354 386.821 589.553 385.39C591.759 383.956 599.585 379.327 603 376.021C606.417 372.714 610.825 366.982 614.794 363.677C618.762 360.37 625.153 351.443 626.587 347.805C626.587 347.805 622.72 363.456 624.052 378.005Z" stroke="#CCCCCC" stroke-width="3" stroke-miterlimit="10"/>
</svg>
